<svg xmlns="http://www.w3.org/2000/svg" viewBox="0 0 1000 1000"><g id="Items"><path d="M185.63,295.36H246.9l-1.09,5.43H190.34L167.87,406.28h52.2L219,411.72h-52.2L140.32,536.79h-5.8ZM246,301.2H178.6q1.16-7.6,2.33-15.2h69ZM219.78,408.79H163.39q1-7.6,2-15.21H223Q221.41,401.18,219.78,408.79ZM190.29,301.2Q165.15,419.31,140,537.42H129.48Q154,419.31,178.6,301.2Z"/><path d="M291.82,402.3l-17.76,86.64c-7.61,37.34-18.49,50.75-42.05,50.75-21.75,0-33.71-14.86-26.1-51.11L224.4,399c7.25-35.16,21-47.12,40.6-47.12C288.2,351.91,299.07,367.5,291.82,402.3Zm-61.62-4-18.49,88.82c-6.89,32.62.72,47.12,21.39,47.12,18.85,0,28.27-11.6,35.52-47.12l17-82.66c8-38.06-4.35-47.12-21.75-47.12C249.41,357.35,237.09,366.05,230.2,398.31Z"/><path d="M353.43,494.38c-4,18.12-7.25,34.8-8.34,42.41h-5.44c0-2.9,2.17-15.23,4.71-25-7.25,17-18.12,27.91-34.8,27.91-14.86,0-30.81-6.53-23.2-42.78l30.09-142.1h5.8L292.52,495.46c-5.43,24.65-1.08,38.43,17.77,38.43,17.4,0,31.53-12.33,42.77-64.17l24.29-114.91h5.8Z"/><path d="M386.75,416.8c5.8-27.55,9.79-48.58,12.33-62h5.44c-.37,2.17-1.45,10.51-6.17,32.62,8-20.66,26.83-34.43,42.78-35.52l-1.45,6.16c-25.38,4.35-39.88,25.38-48.58,65.62L368.39,524.62l-5.5,4.12Q374.83,472.78,386.75,416.8Z"/><path d="M340.2,654.19l-1.45,8c-5.43,30.81,2.18,46.4,24.29,46.4,21.39,0,30.45-14.86,37.7-51.11,5.8-29.37-1.08-48.94-18.12-72.14-18.49-25.38-23.93-42.78-17.4-73.23,6.89-32.26,17.4-45.31,37-45.31,22.48,0,31.91,16,26.83,46l-1.81,10.52h-5.8l1.81-10.52c5.07-29-4.35-40.6-21.75-40.6-13.05,0-23.93,8-30.81,41.33-5.44,25.74-2.18,42.41,15.22,66.34,18.49,25.38,27.19,46.76,20.66,77.94C399.66,691.52,391.68,714,362.68,714c-32.26,0-34.08-27.55-29.36-52.2l1.45-7.61Z"/><path d="M344.88,654.19l-1.45,8c-5.44,30.81,2.18,46.4,24.29,46.4,21.39,0,30.45-14.86,37.7-51.11,5.8-29.37-1.09-48.94-18.12-72.14-18.49-25.38-23.93-42.78-17.41-73.23,6.89-32.26,17.41-45.31,37-45.31,22.48,0,31.9,16,26.83,46l-1.81,10.52h-5.81l1.82-10.52c5.07-29-4.35-40.6-21.75-40.6-13,0-23.93,8-30.82,41.33-5.44,25.74-2.17,42.41,15.23,66.34,18.49,25.38,27.19,46.76,20.66,77.94C404.33,691.52,396.36,714,367.36,714c-32.27,0-34.08-27.55-29.37-52.2l1.45-7.61Z"/><path d="M430.8,614.31l-8,38.06c-7.61,36.25-5.44,56.19,19.21,56.19,22.11,0,27.55-20.66,31.9-39.87l1.09-4.35h5.44l-1.09,4.71c-3.62,16-8.7,45-38.43,45-29.36,0-31.53-25.74-23.56-63.08L433,578.42c9.79-45.68,26.83-52.2,41.69-52.2,18.85,0,34.44,11.6,24.65,56.19l-7.25,31.9Zm56.56-5.44,5.8-24.65c6.52-31.54,4.71-52.56-19.22-52.56-17,0-27.91,12.32-35.89,49.3l-6.16,27.91Z"/><path d="M549.32,678.47c-1.09,5.08-5.08,23.2-5.8,32.63h-5.44A246,246,0,0,1,542.8,685c-8.71,19.57-18.86,29-36.62,29-24.29,0-28.64-22.84-22.47-51.11,8.33-39.16,31.17-46,68.15-54,2.17-.36,4.35-1.09,6.52-1.45l8-36.61c3.62-16.32,5.44-39.15-20.3-39.15-17.76,0-24.65,14.86-29,33.71l-1.45,6.16h-5.8l1.81-7.61c3.26-13.78,9.42-37.7,35.52-37.7,25.38,0,30.46,19.21,25.38,43.5Zm8-64.89-5.44,1.09c-37.7,7.25-56.19,16.31-62.35,48.94-5.44,28.28-.73,44.59,17.4,44.59,24.29,0,35.52-23.2,42.77-58Z"/><path d="M563.8,664.7l-1.09,5.07c-4,18.49,1.81,38.79,22.48,38.79,17.76,0,27.55-13,31.54-33.35,4.35-22.84,0-39.15-15.59-56.19-18.85-20.66-26.47-35.53-21.75-58.73,3.62-18.48,13.05-34.07,33-34.07,26.1,0,29.72,21.75,26.82,41l-.72,4.71h-5.8l.72-4.35c2.9-16.67.73-35.88-21.75-35.88-13.77,0-22.84,9.78-26.82,29.36S587,594.73,604,613.58C619.63,631,628,648.75,622.16,676.3c-5.07,23.56-15.58,37.7-36.25,37.7-30.45,0-32.26-28.28-29-44.23L558,664.7Z"/><path d="M714.94,576.61l-17.76,86.64c-7.61,37.34-18.49,50.75-42,50.75-21.75,0-33.72-14.86-26.1-51.11l18.49-89.55c7.25-35.16,21-47.12,40.6-47.12C711.32,526.22,722.19,541.81,714.94,576.61Zm-61.62-4-18.49,88.82c-6.89,32.62.72,47.12,21.39,47.12,18.85,0,28.27-11.6,35.52-47.12l17-82.66c8-38.06-4.35-47.12-21.75-47.12C672.53,531.66,660.2,540.36,653.32,572.62Z"/><path d="M728.69,581c7.62-35.53,10.15-47.85,10.88-51.84H745c-.37,2.17-2.9,14.5-5.08,23.92,5.8-13.77,17-26.82,35.16-26.82,16.32,0,31.54,8,23.57,46.4L769.3,711.1h-5.81l28.28-134.49c6.53-30.45,1.81-44.59-17.4-44.59-24.65,0-35.16,26.82-42.41,60.9l-25,118.18h-5.8Z"/><path d="M794.28,664.7l-1.09,5.07c-4,18.49,1.81,38.79,22.48,38.79,17.76,0,27.55-13,31.54-33.35,4.35-22.84,0-39.15-15.59-56.19-18.85-20.66-26.47-35.53-21.75-58.73,3.62-18.48,13-34.07,33-34.07,26.11,0,29.73,21.75,26.83,41l-.72,4.71h-5.8l.72-4.35c2.9-16.67.73-35.88-21.75-35.88-13.78,0-22.84,9.78-26.83,29.36s2.18,33.71,19.22,52.56c15.59,17.4,23.92,35.17,18.12,62.72-5.07,23.56-15.58,37.7-36.25,37.7-30.45,0-32.26-28.28-29-44.23l1.09-5.07Z"/></g></svg>