<svg xmlns="http://www.w3.org/2000/svg" viewBox="0 0 1000 1000"><g id="Items"><path d="M422.76,130.34H599.2L596.06,145H436.34L371.61,430.32H521.94L518.81,445H368.47L292.26,783.25h-16.7Zm297.86,15.81H402.5l4.81-29.73L738.94,115Zm-99.28,299H358.72q4.56-18.49,9.11-37H636.46Zm-185.16-299L291.37,785H261.06Q331.79,465.55,402.5,146.15Z"/><path d="M468.34,722.34l-4.18,19.44c-15.65,75.11,6.27,113.1,69.95,113.1,61.6,0,87.7-36.23,108.57-124.58,16.71-71.58-3.13-119.29-52.19-175.84C537.24,492.61,521.58,450.2,540.37,376c19.84-78.64,50.12-110.44,106.49-110.44,64.73,0,91.87,38.87,77.26,112.21l-5.23,25.63h-16.7l5.22-25.63c14.61-70.69-12.53-99-62.64-99-37.58,0-68.9,19.44-88.73,100.73-15.67,62.73-6.27,103.38,43.84,161.7,53.24,61.85,78.3,114,59.51,190-19.84,82.17-42.81,137-126.32,137-92.91,0-98.14-67.16-84.56-127.24l4.17-18.56Z"/><path d="M413.5,739.21l-4.18,19.44c-15.66,75.1,6.26,113.09,69.95,113.09,61.59,0,87.69-36.22,108.57-124.58,16.7-71.57-3.13-119.29-52.2-175.84-53.24-61.85-68.91-104.26-50.11-178.48C505.36,314.2,535.64,282.39,592,282.39c64.73,0,91.87,38.88,77.26,112.22l-5.22,25.62H647.34l5.22-25.62c14.62-70.69-12.53-99-62.64-99-37.58,0-68.9,19.44-88.73,100.73-15.66,62.74-6.27,103.38,43.85,161.7,53.24,61.85,78.29,114,59.5,190-19.83,82.18-42.8,137-126.32,137-92.91,0-98.13-67.15-84.56-127.24l4.17-18.55Z"/></g></svg>